Coordinates
version=1
nRows=19
nColumns=24
inDegrees=yes

Units are S.I. units (second, meters, Newtons, ...)
Angles are in degrees.

endheader
time	pelvis_tilt	pelvis_list	pelvis_rotation	pelvis_tx	pelvis_ty	pelvis_tz	hip_flexion_r	hip_adduction_r	hip_rotation_r	knee_angle_r	ankle_angle_r	subtalar_angle_r	mtp_angle_r	hip_flexion_l	hip_adduction_l	hip_rotation_l	knee_angle_l	ankle_angle_l	subtalar_angle_l	mtp_angle_l	lumbar_extension	lumbar_bending	lumbar_rotation
      2.58000000	     14.05053320	     -0.56855515	      3.29138229	      0.95985413	      0.91287638	      0.27604400	     11.10713723	      1.46708513	     -3.41062891	    -26.35151821	     11.96204560	      0.66340320	     30.86819014	    -17.67144271	     -2.59612726	     -1.12263718	    -51.81781044	     10.80962973	      0.69473446	     52.43267402	    -30.09854045	      5.52490701	     -0.63171944
      2.58500000	     13.39130318	     -1.18620910	      3.65041860	      0.96582321	      0.91212178	      0.27638253	     11.44432301	      2.24364491	     -3.37880546	    -26.34215363	     12.27876089	      0.02935866	     30.06429662	    -15.60745393	     -3.29882860	     -0.69238494	    -54.38496994	     10.86378115	     -0.06134945	     49.24624949	    -29.38357991	      6.32021685	     -0.68043845
      2.59000000	     12.83511805	     -1.81751340	      4.11935205	      0.97169505	      0.91163801	      0.27650500	     11.59494395	      2.99778019	     -3.47782471	    -26.17356040	     12.51102896	     -0.58101068	     29.63406880	    -13.61671490	     -4.00774274	     -0.08784545	    -56.88157024	     11.45320099	     -0.47661415	     46.08582229	    -28.79815175	      7.18192297	     -0.77422762
      2.59500000	     12.34358766	     -2.33369761	      4.45010582	      0.97752317	      0.91138526	      0.27662368	     11.69499946	      3.62301229	     -3.47640317	    -26.02540999	     12.71433006	     -1.11616879	     29.46748801	    -11.78844966	     -4.48631556	      0.45726108	    -59.07517982	     12.03740840	     -0.87960730	     46.15384604	    -28.30443228	      7.87436613	     -0.77600425
      2.60000000	     11.88683510	     -2.79993183	      4.73478501	      0.98338262	      0.91131464	      0.27677797	     11.75096438	      4.19006359	     -3.43412630	    -25.87347084	     12.88916541	     -1.58834230	     29.20934438	    -10.03032210	     -4.87471294	      0.93669774	    -61.12122290	     12.54503367	     -1.20893368	     46.37454575	    -27.84055314	      8.49680218	     -0.69148939
      2.60500000	     11.56325084	     -3.09070486	      5.00504254	      0.98918916	      0.91159376	      0.27690680	     11.67631607	      4.54493298	     -3.51776165	    -25.78829421	     13.17178242	     -1.91331988	     28.95646551	     -8.47481528	     -5.04777243	      1.43011875	    -62.91418989	     12.81165493	     -1.92532536	     46.27395591	    -27.52640586	      8.94764946	     -0.75217181
      2.61000000	     11.23200751	     -3.38530002	      5.32554573	      0.99507652	      0.91194174	      0.27707799	     11.58772584	      4.88389295	     -3.70256633	    -25.66887586	     13.51710332	     -2.04538555	     28.60852566	     -6.87723698	     -5.26334571	      1.91307331	    -64.65628644	     12.97027211	     -2.61918420	     45.95240290	    -27.18742611	      9.40284558	     -0.85867762
      2.61500000	     11.05269117	     -3.55107337	      5.63132390	      1.00076100	      0.91263139	      0.27719766	     11.32441877	      5.09010743	     -3.91613454	    -25.54608928	     13.86928007	     -2.17617358	     28.22664483	     -5.46867525	     -5.34341283	      2.38643082	    -66.21396930	     13.09194917	     -3.21960704	     45.79698879	    -27.02626859	      9.72535521	     -1.07958594
      2.62000000	     10.65540245	     -3.82431840	      5.77312620	      1.00665577	      0.91295005	      0.27772030	     11.31605160	      5.41472885	     -4.01070959	    -25.45696667	     14.13217443	     -1.94462940	     26.98345808	     -3.82205472	     -5.58298359	      2.60918872	    -67.76257644	     13.40211155	     -3.39153680	     45.57284661	    -26.62476997	     10.05872240	     -1.08039595
      2.62500000	     10.50099851	     -4.02009240	      6.15493559	      1.01238195	      0.91372896	      0.27781655	     10.96879068	      5.62474730	     -4.36730285	    -25.19945012	     14.08298025	     -1.82191243	     26.31881625	     -2.39280936	     -5.74136022	      3.07900232	    -69.18107368	     13.65974638	     -3.56278712	     45.48163745	    -26.46421601	     10.41892867	     -1.31246907
      2.63000000	     10.08810173	     -4.28343770	      6.20290200	      1.01820950	      0.91407888	      0.27842232	     10.96822983	      5.93910873	     -4.36263459	    -25.08560951	     14.65620187	     -1.20931358	     22.30641118	     -0.73426770	     -5.96915424	      3.16261549	    -70.54546937	     14.07778380	     -3.37709513	     45.70741521	    -26.05536501	     10.68609490	     -1.25378884
      2.63500000	      9.75527463	     -4.49858936	      6.52850425	      1.02386573	      0.91457187	      0.27849296	     10.83295924	      6.13629917	     -4.73174259	    -24.85113397	     14.92228499	     -1.00317262	     22.06812289	      0.91040712	     -6.08610132	      3.55157036	    -71.82797801	     14.23673811	     -3.50073920	     45.57157441	    -25.69593061	     11.03579314	     -1.49545390
      2.64000000	      9.38938210	     -4.66761321	      6.70599656	      1.02951240	      0.91497462	      0.27885572	     10.76012125	      6.32760862	     -4.90328699	    -24.66772450	     15.24967299	     -0.96002069	     21.81610480	      2.53504170	     -6.14000197	      3.80252811	    -72.98788851	     14.62314471	     -3.52052597	     45.36263732	    -25.34199515	     11.25214472	     -1.56103430
      2.64500000	      9.16332479	     -4.81835764	      6.80725156	      1.03519441	      0.91566598	      0.27921881	     10.47289004	      6.52938662	     -4.99954807	    -24.36150670	     15.52768997	     -0.96336605	     21.69828402	      3.93231836	     -6.17168589	      3.97143313	    -73.94554066	     15.02925970	     -3.45905829	     45.22538898	    -25.14461682	     11.43361956	     -1.61066285
      2.65000000	      8.91065329	     -5.05862714	      6.89958563	      1.04103883	      0.91636989	      0.27969410	     10.08780833	      6.85966795	     -4.98030364	    -23.79018420	     15.66471200	     -1.13897308	     21.54390854	      5.34079768	     -6.33285067	      4.09037335	    -74.80779444	     15.33728920	     -3.32761379	     45.03152818	    -24.88151634	     11.68572741	     -1.60561225
      2.65500000	      8.66064748	     -5.30281429	      6.92962016	      1.04698314	      0.91708815	      0.28026097	      9.63456986	      7.21638316	     -4.80868319	    -23.11481398	     15.74690005	     -1.37620929	     21.39460130	      6.70680939	     -6.50733400	      4.13715168	    -75.54959105	     15.72722469	     -3.11647622	     44.79997433	    -24.62362970	     11.91641980	     -1.50039392
      2.66000000	      8.57613303	     -5.50321321	      6.95869274	      1.05297667	      0.91809107	      0.28085249	      8.91812327	      7.55760959	     -4.67194780	    -22.27839087	     15.78399226	     -1.61576303	     21.30727086	      7.82445463	     -6.66840461	      4.15396958	    -76.11099902	     16.07887048	     -2.79004421	     44.71189788	    -24.54542076	     12.10847425	     -1.45670295
      2.66500000	      8.29710536	     -5.69072241	      6.87612453	      1.05905377	      0.91877857	      0.28143511	      8.50301797	      7.84501109	     -4.49541160	    -21.65784063	     15.86734282	     -1.66594427	     21.23991872	      9.11877260	     -6.78737116	      4.08477863	    -76.60314765	     16.51456928	     -2.38739391	     44.87739558	    -24.25485714	     12.24398168	     -1.31546251
      2.67000000	      8.23004370	     -5.78759297	      6.73138986	      1.06502048	      0.91975247	      0.28192137	      7.96062906	      8.03397823	     -4.32164570	    -21.26106292	     16.03993553	     -1.46466901	     21.23065299	     10.12523578	     -6.81914639	      3.90980812	    -76.96054659	     16.88191621	     -2.12323452	     44.94938264	    -24.23348883	     12.28591083	     -1.06118222
